<svg width="72" height="71" viewBox="0 0 72 71" fill="none" xmlns="http://www.w3.org/2000/svg">
<path d="M36.4966 0.903564C17.1633 0.903564 0.845947 17.6632 0.845947 37.5676C0.845947 45.3066 1.44528 50.5317 4.61595 55.9933C10.0099 65.2999 21.8999 70.8404 36.4966 70.8404C55.5496 70.8404 63.9693 62.5887 67.6813 55.6779C70.0593 51.2514 71.2 45.3855 71.2 37.2423C71.2 17.2097 55.6173 0.903564 36.4966 0.903564ZM66.8403 55.2145C63.2539 61.8986 55.076 69.8545 36.4966 69.8545C22.2673 69.8545 10.6673 64.4914 5.46661 55.5004C2.41195 50.2261 1.83195 45.1292 1.83195 37.5676C1.83195 18.235 17.7143 1.88942 36.5159 1.88942C55.0856 1.88942 70.2333 17.7519 70.2333 37.2423C70.2333 45.208 69.1313 50.926 66.8403 55.2145Z" fill="black"/>
<path d="M14.6597 51.9316H15.0077C15.5237 52.0005 16.0435 52.0368 16.564 52.04C17.3805 52.1206 18.203 51.9733 18.9437 51.6138C19.6844 51.2543 20.3153 50.6963 20.769 49.9993C21.5104 48.4689 21.8722 46.7763 21.8227 45.07C21.8227 44.3207 21.8227 43.5912 21.8227 42.9208C21.8539 42.6787 21.8539 42.4334 21.8227 42.1913C21.8227 42.142 21.8227 42.073 21.8227 41.9842C21.8617 38.8773 21.2692 35.7959 20.0827 32.9341L20.0247 32.8059C18.8647 30.361 17.26 29.0202 15.3653 28.8625C14.2659 28.8209 13.1864 29.1693 12.3107 29.8483L12.2333 29.9272C11.2436 30.7348 10.4275 31.7415 9.83599 32.8848C8.48103 35.4521 7.72048 38.3018 7.61266 41.2153C7.39999 44.2221 7.39999 45.8291 8.36666 48.1064C9.49766 51.0246 14.4083 51.8921 14.6597 51.9316ZM12.504 32.2144C12.5895 31.6371 12.7488 31.0736 12.9777 30.5384C13.0718 30.4668 13.1721 30.4041 13.2773 30.3511C13.3523 30.2957 13.4334 30.2493 13.519 30.2131C13.6778 30.1284 13.8426 30.0559 14.012 29.9962L14.2827 29.9173H14.3407H14.447H14.6113C14.7074 29.9025 14.8052 29.9025 14.9013 29.9173C15.0397 29.9076 15.1786 29.9076 15.317 29.9173C16.0881 29.9654 16.8206 30.2781 17.3953 30.8046L17.608 30.9919C17.6612 31.0396 17.7097 31.0925 17.753 31.1497C17.8893 31.2906 18.0184 31.4387 18.1397 31.5933C18.2834 31.7625 18.4128 31.9439 18.5263 32.1355C18.653 32.3138 18.7661 32.5016 18.8647 32.6975C18.9517 32.8453 19.029 32.9932 19.0967 33.1312C19.0967 33.22 19.0967 33.2988 19.0967 33.3974C18.8969 34.944 18.1259 36.3545 16.941 37.3409C16.6713 37.5597 16.361 37.7205 16.0287 37.8137C15.6965 37.9069 15.3491 37.9305 15.0077 37.8831C13.2 37.538 12.0593 35.0339 12.504 32.2538V32.2144ZM8.55033 41.2646C8.63557 39.2418 9.03358 37.2455 9.72966 35.3494C10.097 41.6885 13.664 46.6868 18.0043 46.6868C19.0876 46.6215 20.1049 46.1345 20.8463 45.3263C20.8848 46.7808 20.5833 48.2238 19.9667 49.5359C18.9227 51.3992 16.3707 51.1232 15.1333 50.9851H14.795C14.7467 50.9851 10.213 50.1767 9.25599 47.7614C8.36666 45.6319 8.36666 44.2221 8.55033 41.2646Z" fill="black"/>
<path d="M50.3683 42.9011C50.3683 43.5715 50.3683 44.301 50.3683 45.0503C50.3159 46.7568 50.6778 48.4501 51.4219 49.9795C51.8655 50.6968 52.4946 51.2752 53.24 51.651C53.9854 52.0267 54.8181 52.1852 55.6463 52.109C56.1667 52.1058 56.6865 52.0695 57.2026 52.0006H57.5893C57.8019 52.0006 62.7126 51.1034 63.8726 48.1853C64.7812 45.9079 64.8392 44.3207 64.6266 41.2843C64.5199 38.3674 63.7593 35.5143 62.4033 32.9439C61.8093 31.8191 60.993 30.8322 60.0059 30.0455L59.8996 29.9666C59.0183 29.2912 57.937 28.9434 56.8353 28.9808C54.9019 29.0892 53.3456 30.43 52.1856 32.9242L52.1276 33.0524C50.941 35.9142 50.3486 38.9956 50.3876 42.1025C50.3836 42.1715 50.3836 42.2406 50.3876 42.3096C50.3567 42.5484 50.3567 42.7904 50.3876 43.0292L50.3683 42.9011ZM53.1136 33.0425C53.1813 32.9045 53.2586 32.7566 53.3456 32.6087C53.4477 32.415 53.5607 32.2273 53.6839 32.0468C53.8009 31.8575 53.9301 31.6764 54.0706 31.5046C54.1919 31.35 54.3209 31.2019 54.4573 31.0609C54.4977 31.0014 54.5466 30.9482 54.6023 30.9032L54.8149 30.7159C54.9138 30.6283 55.017 30.5461 55.1243 30.4694C55.1914 30.4177 55.2625 30.3716 55.3369 30.3314C55.4336 30.2697 55.5336 30.2137 55.6366 30.1638L55.9169 30.0356L56.2263 29.937C56.4404 29.8747 56.6611 29.8383 56.8836 29.8286C57.0958 29.8089 57.3094 29.8089 57.5216 29.8286C57.7353 29.8613 57.9457 29.9141 58.1499 29.9863L58.3336 30.0553L58.4786 30.1145C58.7415 30.2269 58.9911 30.3691 59.2229 30.5384C59.4518 31.0702 59.6111 31.6304 59.6966 32.2045C60.1413 34.9945 59.0296 37.4986 57.2316 37.8042C56.8902 37.8505 56.5431 37.8263 56.211 37.7332C55.8788 37.64 55.5685 37.4798 55.2983 37.262C54.12 36.2713 53.3532 34.8624 53.1523 33.3185C53.1476 33.2332 53.1476 33.1476 53.1523 33.0622L53.1136 33.0425ZM54.2059 46.6572C58.5463 46.6572 62.1133 41.6589 62.4806 35.3198C63.1767 37.2159 63.5747 39.2122 63.6599 41.235C63.8339 44.1926 63.8146 45.6418 62.9736 47.7416C62.0069 50.1471 57.4829 50.9555 57.4733 50.9555H57.0963C55.8783 51.0936 53.3263 51.3696 52.2629 49.5063C51.638 48.1926 51.3266 46.7468 51.3543 45.2869C52.0978 46.1005 53.1177 46.5941 54.2059 46.6671V46.6572Z" fill="black"/>
<path d="M20.1696 28.833C20.5353 29.2326 20.9226 29.6111 21.3296 29.9668H21.4166C21.4286 29.3522 21.2603 28.748 20.9333 28.2316C20.5991 27.7642 20.1868 27.3604 19.7153 27.0388C18.8467 26.3515 17.8907 25.7876 16.8733 25.3628V25.4515C17.7225 26.1036 18.5148 26.8293 19.2416 27.6204C19.551 28.0148 19.8023 28.4485 20.1696 28.833Z" fill="black"/>
<path d="M52.0309 28.8329C52.3886 28.478 52.6496 28.0146 52.9976 27.6203C53.726 26.8428 54.5183 26.1304 55.3659 25.4908L55.3176 25.4021C54.2991 25.8247 53.3428 26.3887 52.4756 27.0781C52.0041 27.3997 51.5918 27.8035 51.2576 28.2709C50.9413 28.7772 50.7767 29.3664 50.7839 29.9666H50.8709C51.3252 29.5723 51.6732 29.2075 52.0309 28.8329Z" fill="black"/>
<path d="M41.5137 60.4299L42.8863 59.7003C43.0781 59.598 43.2402 59.4462 43.3564 59.26C43.4726 59.0738 43.5389 58.8598 43.5487 58.6393C43.5585 58.4188 43.5114 58.1995 43.4121 58.0034C43.3129 57.8073 43.1649 57.6412 42.983 57.5216L42.693 57.3244C42.5109 57.1978 42.299 57.123 42.0792 57.1079C41.8593 57.0927 41.6395 57.1377 41.4424 57.2382C41.2453 57.3387 41.0781 57.4911 40.9581 57.6795C40.838 57.868 40.7695 58.0858 40.7597 58.3103L40.6727 59.8876C40.664 59.9919 40.6836 60.0966 40.7293 60.1904C40.7749 60.2841 40.845 60.3632 40.9317 60.4192C41.0185 60.4751 41.1186 60.5057 41.2212 60.5076C41.3238 60.5094 41.425 60.4826 41.5137 60.4299Z" fill="black"/>
<path d="M31.4313 59.4735L32.8039 60.1931C32.8907 60.241 32.9884 60.2643 33.0869 60.2605C33.1855 60.2567 33.2812 60.226 33.3642 60.1716C33.4471 60.1172 33.5142 60.0412 33.5585 59.9513C33.6028 59.8614 33.6226 59.7611 33.6159 59.6608L33.4999 58.0933C33.4871 57.8701 33.4168 57.6544 33.2962 57.4677C33.1755 57.2811 33.0088 57.1302 32.8128 57.0303C32.6167 56.9303 32.3983 56.8848 32.1795 56.8983C31.9608 56.9119 31.7494 56.984 31.5666 57.1074L31.2766 57.3046C31.0995 57.4295 30.9573 57.5994 30.8643 57.7975C30.7713 57.9956 30.7306 58.215 30.7462 58.4341C30.7618 58.6532 30.8332 58.8643 30.9534 59.0466C31.0735 59.2289 31.2383 59.376 31.4313 59.4735Z" fill="black"/>
<path d="M8.45373 54.8398L7.48706 55.0074C7.48706 55.2736 8.78239 61.524 33.5871 63.407L33.6547 62.4211C9.94239 60.617 8.46339 54.899 8.45373 54.8398Z" fill="black"/>
<path d="M40.75 62.4212L40.8273 63.407C64.0273 61.5142 65.2453 55.2737 65.284 55.0075L64.3173 54.8596C64.3173 54.9188 62.877 60.6269 40.75 62.4212Z" fill="black"/>
</svg>
