<svg width="155" height="145" viewBox="0 0 155 145" fill="none" xmlns="http://www.w3.org/2000/svg">
<g clip-path="url(#clip0)">
<path d="M49.7869 127.568L49.4117 128.015L50.397 128.959L50.9434 128.313C50.5462 128.076 50.1622 127.837 49.7869 127.568Z" fill="black"/>
<path d="M61.6447 92.0504C60.9431 91.3072 60.0936 90.7272 59.1539 90.3496C58.2142 89.972 57.2062 89.8057 56.1982 89.8619C55.1902 89.9181 54.2056 90.1955 53.3113 90.6753C52.4169 91.1552 51.6336 91.8262 51.0145 92.643C49.7033 94.3527 49.047 96.4939 49.1688 98.6641C49.2907 100.834 50.1824 102.884 51.6763 104.427C52.3819 105.155 53.2284 105.723 54.1614 106.096C55.0943 106.468 56.093 106.637 57.0934 106.59C57.3668 106.562 57.6378 106.513 57.9042 106.443C59.7951 106.016 61.4694 104.898 62.6138 103.298C63.7581 101.698 64.2943 99.7255 64.1218 97.7502C64.0182 95.6004 63.1349 93.5678 61.6447 92.0504ZM58.8772 98.8129C58.3358 98.9082 57.779 98.8372 57.277 98.6087C56.7751 98.3802 56.3505 98.0045 56.0569 97.5291C55.7633 97.0536 55.6138 96.4997 55.6273 95.9372C55.6407 95.3747 55.8166 94.8289 56.1326 94.3686C56.4487 93.9083 56.8907 93.5542 57.403 93.3509C57.9153 93.1476 58.4749 93.1043 59.0111 93.2264C59.5473 93.3485 60.0361 93.6306 60.4159 94.0371C60.7956 94.4435 61.0493 94.9561 61.1449 95.5101C61.2086 95.8795 61.2004 96.2582 61.1208 96.6244C61.0412 96.9906 60.8918 97.3371 60.6811 97.644C60.4703 97.9509 60.2025 98.2121 59.8929 98.4127C59.5834 98.6133 59.2382 98.7493 58.8772 98.8129Z" fill="black"/>
<path d="M104.307 88.6717C103.699 86.6081 102.365 84.849 100.564 83.7348C99.7034 83.1914 98.7418 82.8384 97.7403 82.6983C96.7389 82.5582 95.7199 82.6342 94.7487 82.9214C93.785 83.2271 92.8956 83.7389 92.1393 84.4229C91.383 85.1068 90.777 85.9474 90.3615 86.889C89.6131 88.514 89.3812 90.3383 89.6985 92.105C89.764 92.4685 89.8488 92.828 89.9528 93.182C90.4515 95.0981 91.6148 96.7623 93.225 97.8632C94.8352 98.9641 96.7821 99.4263 98.7014 99.1633C98.9617 99.0974 99.2174 99.0135 99.4668 98.9122C100.429 98.6068 101.317 98.0966 102.074 97.4153C102.83 96.7339 103.438 95.8966 103.856 94.9583C104.766 92.9933 104.927 90.7513 104.307 88.6717ZM95.1365 92.2427C94.5949 92.3408 94.0372 92.2723 93.5338 92.0457C93.0304 91.8192 92.6039 91.4448 92.3083 90.97C92.0127 90.4951 91.8612 89.9411 91.873 89.378C91.8848 88.8149 92.0594 88.268 92.3747 87.8064C92.69 87.3448 93.1318 86.9894 93.6443 86.7849C94.1567 86.5805 94.7169 86.5363 95.2538 86.6578C95.7907 86.7794 96.2803 87.0614 96.6607 87.468C97.0411 87.8746 97.2952 88.3877 97.3908 88.9423C97.5191 89.686 97.3537 90.4516 96.9309 91.0705C96.5081 91.6894 95.8626 92.1111 95.1365 92.2427Z" fill="black"/>
<path d="M75.511 116.421C73.2849 116.76 71.0131 116.293 69.0877 115.1L69.8202 113.942C70.9772 114.643 72.2784 115.056 73.6195 115.149C76.3928 115.334 78.8821 113.873 80.7706 110.835L81.9161 111.596C81.2593 112.774 80.377 113.805 79.322 114.626C78.2671 115.446 77.0613 116.041 75.7769 116.373L75.511 116.421Z" fill="black"/>
<path d="M87.3272 114.28L87.0481 114.33C85.7304 114.471 84.3985 114.338 83.1328 113.937C81.867 113.537 80.6936 112.878 79.6832 112.001L80.4915 110.886C81.3539 111.651 82.3584 112.23 83.4447 112.588C84.531 112.946 85.6768 113.075 86.8133 112.969C88.7641 112.603 90.5242 111.538 91.7777 109.964L92.8662 110.791C91.4662 112.572 89.5101 113.804 87.3272 114.28Z" fill="black"/>
<path d="M113.375 117.884L112.865 117.626C109.581 115.989 107.041 112.069 106.235 107.4C105.04 100.471 108.058 94.1266 113.002 93.2306C114.585 92.9507 116.214 93.2298 117.621 94.0221L117.906 94.1669L117.963 94.4936C119.249 101.153 119.12 106.525 117.566 110.471C116.549 112.925 115.251 115.248 113.701 117.39L113.375 117.884ZM113.237 94.5919C109.037 95.353 106.501 100.993 107.564 107.159C107.795 108.957 108.394 110.685 109.322 112.23C110.25 113.775 111.485 115.101 112.948 116.123C114.297 114.185 115.427 112.096 116.316 109.897C117.746 106.269 117.872 101.277 116.701 95.0452C115.621 94.5263 114.41 94.3678 113.237 94.5919Z" fill="black"/>
<path d="M49.241 67.9764C43.1536 55.2519 35.3809 44.9947 26.163 37.4841L27.0049 36.4051C36.3949 44.0389 44.2778 54.4586 50.4669 67.3753L49.241 67.9764Z" fill="black"/>
<path d="M40.6799 79.6916C32.0259 72.2179 24.3202 63.6633 17.7427 54.2275L18.8536 53.4366C25.3481 62.7733 32.969 71.2315 41.5351 78.6101L40.6799 79.6916Z" fill="black"/>
<path d="M26.5775 36.9458C14.9697 36.2416 18.2877 53.8899 18.2877 53.8899C12.7601 45.6825 8.05014 36.1759 7.00399 26.4545C7.00399 26.4545 15.7831 28.1627 26.5775 36.9458Z" fill="black"/>
<path d="M19.5742 56.8997L17.7427 54.2274C11.0928 44.4405 7.25621 35.0704 6.34551 26.5318L6.18586 25.6061L7.13743 25.7987C7.50649 25.8722 16.202 27.6516 26.9964 36.4348L28.6112 37.7706L26.4774 37.6378C25.4448 37.5033 24.3956 37.6223 23.4166 37.9853C22.4376 38.3482 21.557 38.9445 20.8475 39.7249C17.1804 44.0534 18.924 53.6062 18.9404 53.7015L19.5742 56.8997ZM7.79133 27.3648C8.77768 34.7526 11.9573 42.6976 17.2621 51.0436C16.9902 47.6395 17.0863 42.077 19.8802 38.8052C21.1064 37.3821 22.8124 36.4862 24.6562 36.2973C19.6173 32.2856 13.9005 29.2577 7.79133 27.3648Z" fill="black"/>
<path d="M77.6109 104.276C77.6109 104.276 78.6878 105.99 79.7644 105.795C80.841 105.6 81.2793 103.612 81.2793 103.612C80.6592 103.426 80.0055 103.389 79.3692 103.504C78.733 103.62 78.1312 103.884 77.6109 104.276Z" fill="black"/>
<path d="M79.8701 106.408C78.3947 106.675 77.1676 104.806 77.0347 104.591L76.6765 104.024L77.2277 103.644C77.8329 103.182 78.535 102.872 79.2781 102.737C80.0211 102.602 80.7845 102.647 81.5075 102.868L82.0377 103.081L81.9189 103.664C81.8838 103.937 81.3853 106.133 79.8701 106.408ZM78.6219 104.416C78.9605 104.79 79.3694 105.095 79.6353 105.046C79.9277 104.994 80.2075 104.55 80.4006 104.08C79.7889 104.025 79.1741 104.141 78.6219 104.416Z" fill="black"/>
<path d="M93.9635 59.0585L92.5686 58.9182C94.0621 44.6094 97.9952 32.0485 104.249 21.5799L105.401 22.2977C99.2807 32.5877 95.4007 44.9003 93.9635 59.0585Z" fill="black"/>
<path d="M105.895 67.0459L104.81 66.3161C110.362 56.3753 114.674 45.7606 117.646 34.7207L118.951 35.0596C115.927 46.2402 111.54 56.9868 105.895 67.0459Z" fill="black"/>
<path d="M104.859 21.9328C115.514 17.1943 118.3 34.939 118.3 34.939C120.748 25.2865 122.005 14.6984 119.723 5.20108C119.723 5.20108 112.048 9.89091 104.859 21.9328Z" fill="black"/>
<path d="M118.141 38.2246L117.587 35.0121C117.57 34.9168 116.01 25.3166 111.064 22.5488C110.137 22.065 109.11 21.8143 108.069 21.8175C107.028 21.8206 106.003 22.0774 105.078 22.5668L103.118 23.4413L104.17 21.5942C111.465 9.53309 119.065 4.80085 119.374 4.60451L120.128 4.13089L120.288 5.05655C122.298 13.4521 121.818 23.5481 118.859 35.0763L118.141 38.2246ZM106.879 20.612C108.528 20.2849 110.237 20.5559 111.712 21.3785C115.438 23.511 117.382 28.6617 118.279 31.9526C120.503 22.2002 120.846 13.6169 119.288 6.33269C114.183 10.2632 109.826 15.1211 106.435 20.6642L106.879 20.612Z" fill="black"/>
<path d="M109.964 71.4043C108.486 68.7873 106.535 66.4825 104.215 64.6128C92.494 56.6573 80.6607 53.9304 69.0479 56.6944C55.6589 59.8085 45.7791 69.6005 42.3992 75.4351L42.0279 76.0639C40.9323 77.7286 40.1101 79.5658 39.5941 81.5025C35.2968 100.376 38.5042 111.026 40.3575 117.4L40.5914 118.2C41.4704 121.264 43.1946 124.003 45.5568 126.088C48.795 128.969 55.1273 133.1 66.5126 136.329C72.6102 138.124 79.0264 138.478 85.2778 137.365C90.9008 136.386 96.2557 134.19 100.985 130.925L101.459 130.572C102.573 129.737 103.634 128.832 104.638 127.862C107.963 124.66 110.996 121.155 113.701 117.39C115.256 115.239 116.556 112.906 117.574 110.441C119.128 106.496 119.257 101.124 117.971 94.4639C116.234 86.4705 113.545 78.726 109.964 71.4043ZM116.315 109.897C115.335 112.257 114.087 114.49 112.597 116.551C109.945 120.246 106.968 123.684 103.705 126.824C102.732 127.778 101.706 128.671 100.63 129.501L100.181 129.835C95.3449 133.15 89.8574 135.337 84.1061 136.241C78.3549 137.145 72.4804 136.744 66.8979 135.066C61.3107 133.558 55.9457 131.291 50.9458 128.326L50.3994 128.973L49.4141 128.028L49.7893 127.581C48.6009 126.82 47.4692 125.969 46.4034 125.036C44.2389 123.116 42.6694 120.59 41.8877 117.769L41.6538 116.969C40.7987 114.22 40.114 111.418 39.6039 108.58C40.3613 107.96 41.234 107.504 42.1689 107.241C43.1038 106.977 44.0812 106.911 45.0416 107.047C47.392 107.562 49.4143 109.751 51.0459 113.568C51.0623 113.663 54.5359 121.724 49.7846 127.554C50.1576 127.809 50.5415 128.049 50.9411 128.299C56.0637 121.84 52.4774 113.365 52.2788 113.008C50.4634 108.76 48.1189 106.293 45.315 105.692C43.2347 105.34 41.1018 105.832 39.3699 107.064C38.3265 98.6012 38.8444 90.0121 40.8967 81.7438C41.387 79.9468 42.1577 78.2428 43.179 76.6976L43.5503 76.0688C46.8199 70.549 56.3737 61.0126 69.3492 58.0437C69.9694 57.9313 70.5941 57.8181 71.2233 57.7041C81.8564 55.7773 92.7046 58.5143 103.49 65.8953C105.579 67.5821 107.359 69.6365 108.745 71.9622C112.275 79.1838 114.927 86.8216 116.642 94.7048C116.708 95.0859 116.773 95.4671 116.839 95.8483C117.871 101.754 117.688 106.49 116.315 109.897Z" fill="black"/>
<path d="M50.9457 128.326L50.3993 128.973L49.414 128.028L49.7892 127.581C50.1622 127.837 50.5461 128.076 50.9457 128.326Z" fill="black"/>
</g>
<defs>
<clipPath id="clip0">
<rect width="128.325" height="164.037" fill="white" transform="matrix(0.983976 -0.178302 0.169963 0.98545 0 22.8806)"/>
</clipPath>
</defs>
</svg>
