<svg width="292" height="104" viewBox="0 0 292 104" fill="none" xmlns="http://www.w3.org/2000/svg">
<g clip-path="url(#clip0)">
<path d="M36.6526 47.5765L15.1702 53.2226L14.4002 50.5146L35.8826 44.8685C35.292 40.0873 38.5893 35.4259 43.7886 34.0595C48.9878 32.693 54.293 35.0933 56.3144 39.4985L77.7968 33.8524L78.5668 36.5604L57.0844 42.2065C57.675 46.9877 54.3777 51.649 49.1785 53.0155C43.9792 54.382 38.674 51.9816 36.6526 47.5765ZM13.7473 53.5966L17.5787 52.5896C22.9492 65.8852 38.5599 73.2686 53.8498 69.25C69.1398 65.2315 78.6728 51.2396 76.2612 37.1663L79.9897 36.1864C83.5302 52.2915 72.6487 68.6748 54.9534 73.3256C37.258 77.9764 19.2209 69.1937 13.7473 53.5966ZM48.3686 50.8637C52.847 49.6867 55.5294 45.3983 54.36 41.2855C53.1905 37.1726 48.612 34.7926 44.1336 35.9696C39.6552 37.1467 36.9728 41.435 38.1422 45.5479C39.3117 49.6608 43.8901 52.0407 48.3686 50.8637ZM12.9443 50.8972C8.93676 34.5739 19.8746 17.7892 37.8212 13.0724C55.7677 8.35557 74.0658 17.4564 79.2527 33.4697L75.6038 34.4287C71.3513 19.4728 54.7023 10.8184 38.4171 15.0985C22.132 19.3787 12.3777 34.9726 16.6302 49.9285L12.9443 50.8972L12.9443 50.8972Z" fill="black"/>
</g>
<path d="M111.846 24.4764C114.03 24.4764 115.926 24.8364 117.534 25.5564C119.166 26.2764 120.414 27.3084 121.278 28.6524C122.142 29.9964 122.574 31.5924 122.574 33.4404C122.574 35.2644 122.142 36.8604 121.278 38.2284C120.414 39.5724 119.166 40.6044 117.534 41.3244C115.926 42.0444 114.03 42.4044 111.846 42.4044H106.158V49.6764H101.478V24.4764H111.846ZM111.63 38.4444C113.67 38.4444 115.218 38.0124 116.274 37.1484C117.33 36.2844 117.858 35.0484 117.858 33.4404C117.858 31.8324 117.33 30.5964 116.274 29.7324C115.218 28.8684 113.67 28.4364 111.63 28.4364H106.158V38.4444H111.63ZM135.385 49.9284C133.441 49.9284 131.689 49.5084 130.129 48.6684C128.569 47.8284 127.345 46.6644 126.457 45.1764C125.593 43.6644 125.161 41.9604 125.161 40.0644C125.161 38.1684 125.593 36.4764 126.457 34.9884C127.345 33.5004 128.569 32.3364 130.129 31.4964C131.689 30.6564 133.441 30.2364 135.385 30.2364C137.353 30.2364 139.117 30.6564 140.677 31.4964C142.237 32.3364 143.449 33.5004 144.313 34.9884C145.201 36.4764 145.645 38.1684 145.645 40.0644C145.645 41.9604 145.201 43.6644 144.313 45.1764C143.449 46.6644 142.237 47.8284 140.677 48.6684C139.117 49.5084 137.353 49.9284 135.385 49.9284ZM135.385 46.0764C137.041 46.0764 138.409 45.5244 139.489 44.4204C140.569 43.3164 141.109 41.8644 141.109 40.0644C141.109 38.2644 140.569 36.8124 139.489 35.7084C138.409 34.6044 137.041 34.0524 135.385 34.0524C133.729 34.0524 132.361 34.6044 131.281 35.7084C130.225 36.8124 129.697 38.2644 129.697 40.0644C129.697 41.8644 130.225 43.3164 131.281 44.4204C132.361 45.5244 133.729 46.0764 135.385 46.0764ZM157.796 41.4324L154.448 44.6004V49.6764H149.948V22.9644H154.448V39.0924L163.772 30.4524H169.172L161.144 38.5164L169.928 49.6764H164.456L157.796 41.4324ZM190.098 40.1724C190.098 40.4844 190.074 40.9284 190.026 41.5044H174.942C175.206 42.9204 175.89 44.0484 176.994 44.8884C178.122 45.7044 179.514 46.1124 181.17 46.1124C183.282 46.1124 185.022 45.4164 186.39 44.0244L188.802 46.7964C187.938 47.8284 186.846 48.6084 185.526 49.1364C184.206 49.6644 182.718 49.9284 181.062 49.9284C178.95 49.9284 177.09 49.5084 175.482 48.6684C173.874 47.8284 172.626 46.6644 171.738 45.1764C170.874 43.6644 170.442 41.9604 170.442 40.0644C170.442 38.1924 170.862 36.5124 171.702 35.0244C172.566 33.5124 173.754 32.3364 175.266 31.4964C176.778 30.6564 178.482 30.2364 180.378 30.2364C182.25 30.2364 183.918 30.6564 185.382 31.4964C186.87 32.3124 188.022 33.4764 188.838 34.9884C189.678 36.4764 190.098 38.2044 190.098 40.1724ZM180.378 33.8364C178.938 33.8364 177.714 34.2684 176.706 35.1324C175.722 35.9724 175.122 37.1004 174.906 38.5164H185.814C185.622 37.1244 185.034 35.9964 184.05 35.1324C183.066 34.2684 181.842 33.8364 180.378 33.8364ZM213.249 22.9644V49.6764H208.929V47.1924C208.185 48.1044 207.261 48.7884 206.157 49.2444C205.077 49.7004 203.877 49.9284 202.557 49.9284C200.709 49.9284 199.041 49.5204 197.553 48.7044C196.089 47.8884 194.937 46.7364 194.097 45.2484C193.257 43.7364 192.837 42.0084 192.837 40.0644C192.837 38.1204 193.257 36.4044 194.097 34.9164C194.937 33.4284 196.089 32.2764 197.553 31.4604C199.041 30.6444 200.709 30.2364 202.557 30.2364C203.829 30.2364 204.993 30.4524 206.049 30.8844C207.105 31.3164 208.005 31.9644 208.749 32.8284V22.9644H213.249ZM203.097 46.0764C204.177 46.0764 205.149 45.8364 206.013 45.3564C206.877 44.8524 207.561 44.1444 208.065 43.2324C208.569 42.3204 208.821 41.2644 208.821 40.0644C208.821 38.8644 208.569 37.8084 208.065 36.8964C207.561 35.9844 206.877 35.2884 206.013 34.8084C205.149 34.3044 204.177 34.0524 203.097 34.0524C202.017 34.0524 201.045 34.3044 200.181 34.8084C199.317 35.2884 198.633 35.9844 198.129 36.8964C197.625 37.8084 197.373 38.8644 197.373 40.0644C197.373 41.2644 197.625 42.3204 198.129 43.2324C198.633 44.1444 199.317 44.8524 200.181 45.3564C201.045 45.8364 202.017 46.0764 203.097 46.0764ZM237.208 40.1724C237.208 40.4844 237.184 40.9284 237.136 41.5044H222.052C222.316 42.9204 223 44.0484 224.104 44.8884C225.232 45.7044 226.624 46.1124 228.28 46.1124C230.392 46.1124 232.132 45.4164 233.5 44.0244L235.912 46.7964C235.048 47.8284 233.956 48.6084 232.636 49.1364C231.316 49.6644 229.828 49.9284 228.172 49.9284C226.06 49.9284 224.2 49.5084 222.592 48.6684C220.984 47.8284 219.736 46.6644 218.848 45.1764C217.984 43.6644 217.552 41.9604 217.552 40.0644C217.552 38.1924 217.972 36.5124 218.812 35.0244C219.676 33.5124 220.864 32.3364 222.376 31.4964C223.888 30.6564 225.592 30.2364 227.488 30.2364C229.36 30.2364 231.028 30.6564 232.492 31.4964C233.98 32.3124 235.132 33.4764 235.948 34.9884C236.788 36.4764 237.208 38.2044 237.208 40.1724ZM227.488 33.8364C226.048 33.8364 224.824 34.2684 223.816 35.1324C222.832 35.9724 222.232 37.1004 222.016 38.5164H232.924C232.732 37.1244 232.144 35.9964 231.16 35.1324C230.176 34.2684 228.952 33.8364 227.488 33.8364ZM253.243 49.6764L248.311 43.0164L243.343 49.6764H238.375L245.863 39.9204L238.699 30.4524H243.703L248.419 36.7524L253.135 30.4524H257.995L250.795 39.8484L258.319 49.6764H253.243Z" fill="black"/>
<defs>
<clipPath id="clip0">
<rect width="76.2206" height="87.9797" fill="white" transform="matrix(0.967154 -0.254192 0.273496 0.961873 0 19.3748)"/>
</clipPath>
</defs>
</svg>
