<svg width="30" height="29" viewBox="0 0 30 29" fill="none" xmlns="http://www.w3.org/2000/svg">
<path d="M15 0C11.0218 0 7.20644 1.52767 4.3934 4.24695C1.58035 6.96623 0 10.6544 0 14.5C0 18.3456 1.58035 22.0338 4.3934 24.753C7.20644 27.4723 11.0218 29 15 29C16.9698 29 18.9204 28.6249 20.7402 27.8963C22.5601 27.1676 24.2137 26.0995 25.6066 24.753C26.9995 23.4066 28.1044 21.8081 28.8582 20.0489C29.612 18.2897 30 16.4042 30 14.5C30 12.5958 29.612 10.7103 28.8582 8.95109C28.1044 7.19187 26.9995 5.5934 25.6066 4.24695C24.2137 2.9005 22.5601 1.83244 20.7402 1.10375C18.9204 0.375054 16.9698 0 15 0ZM22.3737 15.7729L16.6895 21.2677C16.5236 21.428 16.3267 21.5552 16.1099 21.642C15.8932 21.7288 15.6609 21.7735 15.4263 21.7735C15.1917 21.7735 14.9594 21.7288 14.7427 21.642C14.526 21.5552 14.329 21.428 14.1632 21.2677C13.9973 21.1073 13.8657 20.917 13.7759 20.7075C13.6861 20.498 13.6399 20.2734 13.6399 20.0466C13.6399 19.8199 13.6861 19.5953 13.7759 19.3858C13.8657 19.1763 13.9973 18.9859 14.1632 18.8256L16.8947 16.2095H8.88632C8.65242 16.2095 8.42082 16.1649 8.20474 16.0784C7.98865 15.9919 7.79231 15.8651 7.62692 15.7052C7.46154 15.5453 7.33034 15.3555 7.24084 15.1467C7.15133 14.9378 7.10526 14.7139 7.10526 14.4878C7.10526 14.2617 7.15133 14.0378 7.24084 13.8289C7.33034 13.62 7.46154 13.4302 7.62692 13.2704C7.79231 13.1105 7.98865 12.9837 8.20474 12.8972C8.42082 12.8106 8.65242 12.7661 8.88632 12.7661H16.8568L14.1695 10.1653C13.8345 9.84142 13.6463 9.40219 13.6463 8.94421C13.6463 8.48623 13.8345 8.047 14.1695 7.72316C14.5045 7.39931 14.9589 7.21738 15.4326 7.21738C15.9064 7.21738 16.3608 7.39931 16.6958 7.72316L22.38 13.2179C22.553 13.3855 22.688 13.586 22.7766 13.8067C22.8652 14.0274 22.9055 14.2635 22.8947 14.5V14.5549C22.8952 14.7811 22.8495 15.0052 22.76 15.2142C22.6706 15.4233 22.5393 15.6132 22.3737 15.7729Z" fill="white"/>
</svg>
