<svg width="314" height="332" viewBox="0 0 314 332" fill="none" xmlns="http://www.w3.org/2000/svg">
<path d="M51.4986 162.813L0.142609 122.489L62.6726 79.5417L102.892 120.493L108.516 100.905L75.6966 64.425L64.5966 45.6124L48.0206 0.595093L81.7646 17.4489L108.035 39.8836L133.639 79.8743L169.862 72.4823L203.162 83.5703L250.855 72.7041L273.314 69.0081L313.089 73.4063L262.954 98.5761L243.973 105.968L224.437 102.716L234.501 129.549L238.201 144.333V161.408V163.921L216.001 189.793L219.701 222.022L230.801 266.892L219.109 294.131L216.556 294.871L233.539 317.268L223.401 322.369L196.724 310.948L181.517 299.602L158.725 294.464L132.825 301.856L126.757 301.08L104.557 326.952L94.9366 331.942L90.2006 322.517L93.9006 291.766L94.9736 290.768L86.5006 282.415L84.4286 268.038L22.0466 226.014L51.6466 207.534L10.5396 181.403L51.4986 162.813ZM85.2426 246.416L93.9006 214.483L94.6036 212.191L62.1176 226.606L85.2426 246.416ZM104.816 178.41L69.8136 186.467L94.8626 211.489L104.816 178.41ZM190.323 301.56L198.426 307.622L220.034 316.862L213.559 311.798L214.706 310.357L224.252 317.749L226.398 316.64L217.222 307.918L218.48 306.587L227.36 315.014L212.819 295.832L201.719 299.01L192.025 301.782H191.544L190.323 301.56ZM94.1226 321.851L94.6776 322.997L98.7106 310.8L100.45 311.392L95.8246 325.326L96.7126 327.1L99.3396 325.769L106.185 314.312L107.776 315.273L102.818 323.589L121.947 301.413L102.855 298.16H102.263L97.6006 293.392L94.1226 321.851ZM90.4226 280.641L97.8226 288.033L104.002 294.464L132.603 298.16L158.503 290.768L191.803 298.16L197.501 296.46L214.114 291.729L216.371 291.101L227.101 266.596L218.924 233.85L215.224 256.026L210.858 268.592L206.751 264.49L202.126 269.11V265.414L199.092 268.444L195.392 261.052L191.026 265.414V260.276H186.771L190.989 251.812L187.289 233.332V214.852H189.139V233.332L192.839 252.108L189.657 258.428H192.802V260.83L195.836 257.8L199.536 265.192L203.976 260.83V264.526L206.751 261.754L210.044 265.044L213.226 255.508L217.703 229.378L216.001 222.614L212.301 188.537L231.985 165.474L230.801 165.104L227.101 157.712V154.016L230.801 146.624L234.279 144.111L230.801 130.657L218.591 98.0956L243.529 102.272L261.4 95.1388L264.286 93.6973L272.537 72.7041L251.558 76.1783L202.94 87.2663L169.64 76.1783L131.863 83.5703L105.445 42.0642L81.8756 21.8841L79.2116 62.5401L112.512 99.5001L105.667 124.448L108.701 175.749V177.929V178.262L101.301 202.692L110.551 218.696L97.1196 216.848L91.0146 239.024L99.4506 251.96L86.7226 255.139V255.767L87.2776 259.463L88.9056 270.736L90.4226 280.641ZM28.8546 226.162L51.6096 241.463L62.4506 244.605L55.0506 233.517L66.1506 237.213L62.4506 231.854L55.0506 225.645L88.5726 210.861L62.2286 184.545L104.742 174.64L101.301 126.592V126.259L101.708 124.448L62.2286 84.3465L6.35858 122.711L58.6026 163.7L18.2356 182.18L58.5286 207.608L28.8546 226.162ZM122.576 214.852L120.763 215.148L124.463 237.583L135.415 259.352L130.679 268.814L139.226 264.526V268.962L143.851 264.342L147.551 268.038L151.251 264.342L155.21 268.296L158.91 260.904L163.276 265.266V258.982L159.576 255.286V233.11L152.176 210.934L150.437 211.526L157.837 233.702V256.026L161.537 259.722V260.794L158.503 257.763L154.803 265.155L151.362 261.718L147.662 265.414L143.962 261.718L141.187 264.49V261.533L134.934 264.674L137.598 259.352L126.498 236.88L122.576 214.852ZM178.446 147.178L175.819 149.803L184.033 158.008L195.429 154.312L201.201 157.306L209.489 153.166L207.824 149.877L201.312 153.129L195.836 150.32L185.032 154.016L178.446 147.178ZM195.651 142.928L199.351 139.232H191.951L195.651 142.928ZM145.701 142.928L138.301 139.232H134.601L127.201 142.928L123.501 150.32V157.712L127.201 161.408L134.601 165.104H142.001L145.701 161.408L149.401 154.016V146.624L145.701 142.928ZM204.901 124.448C204.674 121.756 205.517 119.084 207.248 117.008C208.98 114.933 211.459 113.623 214.151 113.36C216.842 113.623 219.322 114.933 221.053 117.008C222.784 119.084 223.627 121.756 223.401 124.448C223.627 127.14 222.784 129.812 221.053 131.888C219.322 133.963 216.842 135.274 214.151 135.536C211.459 135.274 208.98 133.963 207.248 131.888C205.517 129.812 204.674 127.14 204.901 124.448ZM212.301 124.448C213.032 124.448 213.748 124.231 214.356 123.825C214.965 123.419 215.439 122.842 215.719 122.166C215.999 121.491 216.072 120.748 215.93 120.031C215.787 119.314 215.434 118.655 214.917 118.139C214.399 117.622 213.74 117.27 213.022 117.127C212.305 116.984 211.561 117.058 210.885 117.337C210.209 117.617 209.631 118.091 209.224 118.699C208.818 119.306 208.601 120.021 208.601 120.752C208.601 121.732 208.99 122.672 209.684 123.366C210.378 124.059 211.319 124.448 212.301 124.448ZM153.101 135.536C150.905 135.536 148.759 134.886 146.934 133.667C145.108 132.449 143.686 130.717 142.846 128.691C142.005 126.665 141.786 124.436 142.214 122.285C142.642 120.134 143.699 118.158 145.252 116.608C146.804 115.057 148.782 114.001 150.935 113.573C153.088 113.145 155.32 113.365 157.348 114.204C159.377 115.043 161.11 116.464 162.33 118.288C163.55 120.111 164.201 122.255 164.201 124.448C164.201 127.389 163.031 130.209 160.949 132.288C158.868 134.368 156.044 135.536 153.101 135.536ZM156.801 117.056C156.069 117.056 155.353 117.273 154.745 117.679C154.137 118.085 153.662 118.662 153.382 119.338C153.102 120.013 153.029 120.756 153.172 121.473C153.314 122.19 153.667 122.849 154.184 123.366C154.702 123.882 155.361 124.234 156.079 124.377C156.796 124.52 157.54 124.446 158.217 124.167C158.893 123.887 159.47 123.413 159.877 122.805C160.284 122.198 160.501 121.483 160.501 120.752C160.501 119.772 160.111 118.832 159.417 118.139C158.723 117.445 157.782 117.056 156.801 117.056Z" fill="black"/>
</svg>
