<svg width="106" height="107" viewBox="0 0 106 107" fill="none" xmlns="http://www.w3.org/2000/svg">
<path d="M105.764 48.0311C105.529 46.01 105.293 44.1078 104.822 42.2056C104.587 40.7789 104.233 39.4711 103.762 38.1633C102.584 34.1211 100.936 30.3167 98.8156 26.75C97.6378 24.7289 96.46 22.9456 95.0467 21.0433C93.6333 19.1411 92.1022 17.3578 90.3356 15.6933C88.6867 14.0289 86.92 12.4833 85.0356 10.9378C83.2689 9.51111 81.3844 8.32222 79.3822 7.13333C75.8489 5.11222 72.08 3.32889 68.0756 2.14C66.78 1.78333 65.3667 1.42667 64.0711 1.07C62.1867 0.713333 60.3022 0.356667 58.3 0.118889C56.6511 0.118889 54.8844 0 53 0C51.1156 0 49.3489 0.118889 47.5822 0.237778C22.6133 2.85333 2.82667 22.8267 0.235555 48.0311C0.117778 49.8144 0 51.5978 0 53.5C0 83.1033 23.6733 107 53 107C82.3267 107 106 83.1033 106 53.5C106 51.5978 105.882 49.8144 105.764 48.0311ZM80.4422 30.9111C81.7378 30.0789 83.3867 30.3167 84.2111 31.6244C86.0956 34.3589 87.6267 37.2122 88.6867 40.3033C89.1578 41.73 88.4511 43.3944 87.0378 43.87C86.6844 43.9889 86.4489 43.9889 86.0956 43.9889C84.9178 43.9889 83.9756 43.2756 83.5044 42.2056C82.5622 39.59 81.2667 37.0933 79.7355 34.7156C78.9111 33.5267 79.2645 31.7433 80.4422 30.9111ZM53 15.0989C62.3044 15.0989 71.2556 18.5467 78.2045 24.7289C79.3822 25.7989 79.5 27.4633 78.44 28.6522C77.8511 29.2467 77.1444 29.6033 76.32 29.6033C75.7311 29.6033 75.0245 29.3656 74.5533 28.89C68.5467 23.54 60.8911 20.6867 53 20.6867C51.4689 20.6867 50.2911 19.4978 50.2911 17.9522C50.2911 16.4067 51.4689 15.0989 53 15.0989ZM53 44.4644C57.9467 44.4644 61.9511 48.5067 61.9511 53.5C61.9511 58.4933 57.9467 62.5356 53 62.5356C48.0533 62.5356 44.0489 58.4933 44.0489 53.5C44.0489 48.5067 48.0533 44.4644 53 44.4644ZM53 98.6778C28.2667 98.6778 8.24444 78.4667 8.24444 53.5H33.6844C33.6844 64.2 42.2822 72.9978 53 72.9978C63.7178 72.9978 72.3156 64.2 72.3156 53.5H97.7556C97.7556 78.4667 77.7333 98.6778 53 98.6778Z" fill="black"/>
</svg>
