<svg width="27" height="27" viewBox="0 0 27 27" fill="none" xmlns="http://www.w3.org/2000/svg">
<path d="M13.5 0C17.0804 0 20.5142 1.42232 23.0459 3.95406C25.5777 6.4858 27 9.91958 27 13.5C27 17.0804 25.5777 20.5142 23.0459 23.0459C20.5142 25.5777 17.0804 27 13.5 27C11.7272 27 9.97167 26.6508 8.33377 25.9724C6.69588 25.2939 5.20765 24.2995 3.95406 23.0459C2.70047 21.7924 1.70606 20.3041 1.02763 18.6662C0.349188 17.0283 0 15.2728 0 13.5C0 11.7272 0.349188 9.97167 1.02763 8.33377C1.70606 6.69588 2.70047 5.20765 3.95406 3.95406C5.20765 2.70047 6.69588 1.70606 8.33377 1.02763C9.97167 0.349188 11.7272 0 13.5 0ZM6.86368 14.6852L11.9795 19.8009C12.1288 19.9502 12.306 20.0687 12.5011 20.1495C12.6961 20.2303 12.9052 20.2718 13.1163 20.2718C13.3274 20.2718 13.5365 20.2303 13.7316 20.1495C13.9266 20.0687 14.1039 19.9502 14.2532 19.8009C14.4025 19.6517 14.5209 19.4744 14.6017 19.2794C14.6825 19.0843 14.7241 18.8752 14.7241 18.6641C14.7241 18.453 14.6825 18.2439 14.6017 18.0489C14.5209 17.8538 14.4025 17.6766 14.2532 17.5273L11.7947 15.0916H19.0023C19.2128 15.0916 19.4213 15.0501 19.6157 14.9696C19.8102 14.889 19.9869 14.7709 20.1358 14.6221C20.2846 14.4732 20.4027 14.2965 20.4832 14.1021C20.5638 13.9076 20.6053 13.6991 20.6053 13.4886C20.6053 13.2781 20.5638 13.0697 20.4832 12.8752C20.4027 12.6807 20.2846 12.504 20.1358 12.3552C19.9869 12.2063 19.8102 12.0883 19.6157 12.0077C19.4213 11.9271 19.2128 11.8857 19.0023 11.8857H11.8288L14.2475 9.46421C14.549 9.1627 14.7184 8.75377 14.7184 8.32737C14.7184 7.90097 14.549 7.49204 14.2475 7.19053C13.946 6.88902 13.537 6.71963 13.1106 6.71963C12.6842 6.71963 12.2753 6.88902 11.9738 7.19053L6.858 12.3063C6.70234 12.4624 6.58078 12.649 6.50103 12.8545C6.42129 13.06 6.38509 13.2798 6.39474 13.5V13.5512C6.39428 13.7618 6.43548 13.9704 6.51596 14.165C6.59644 14.3596 6.71462 14.5364 6.86368 14.6852Z" fill="white"/>
</svg>
