<svg width="86" height="88" viewBox="0 0 86 88" fill="none" xmlns="http://www.w3.org/2000/svg">
<path fill-rule="evenodd" clip-rule="evenodd" d="M42.9266 0C66.6801 0 85.8533 19.7618 85.8533 44C85.8533 68.3474 66.6801 88 42.9266 88C19.2797 88 0 68.3474 0 44C0 19.7618 19.2797 0 42.9266 0ZM42.9266 52.9529L28.6533 67.5831C22.9013 73.4789 14.2734 64.5261 19.9188 58.7395L34.2987 44L19.9188 29.3697C14.2734 23.4739 22.9013 14.6303 28.6533 20.4169L42.9266 35.1563L57.3065 20.4169C62.952 14.6303 71.6864 23.4739 65.9345 29.3697L51.6611 44L65.9345 58.7395C71.6864 64.5261 62.952 73.4789 57.3065 67.5831L42.9266 52.9529Z" fill="black"/>
</svg>
