<svg width="84" height="87" viewBox="0 0 84 87" fill="none" xmlns="http://www.w3.org/2000/svg">
<path d="M83.8002 43.6003C83.8002 19.7059 65.0562 0.280273 42.0002 0.280273C18.9442 0.280273 0.200195 19.7059 0.200195 43.6003C0.200195 67.4947 18.9442 86.9203 42.0002 86.9203C65.0562 86.9203 83.8002 67.4947 83.8002 43.6003ZM59.8642 43.0531H50.6242V65.2147C50.6242 66.4003 49.6562 67.4035 48.5122 67.4035H35.4882C34.3442 67.4035 33.3762 66.4003 33.3762 65.2147V43.0531H24.1362C22.2882 43.0531 21.4082 40.8643 22.5522 39.4051L40.4162 19.0675C41.2082 18.1555 42.7042 18.1555 43.4962 19.0675L61.3602 39.4051C62.5922 40.8643 61.7122 43.0531 59.8642 43.0531Z" fill="white"/>
</svg>
