<svg width="40" height="40" viewBox="0 0 40 40" fill="none" xmlns="http://www.w3.org/2000/svg">
<path d="M39.9111 17.9556C39.8222 17.2 39.7333 16.4889 39.5556 15.7778C39.4667 15.2444 39.3333 14.7556 39.1556 14.2667C38.7111 12.7556 38.0889 11.3333 37.2889 10C36.8444 9.24444 36.4 8.57778 35.8667 7.86667C35.3333 7.15556 34.7556 6.48889 34.0889 5.86667C33.4667 5.24445 32.8 4.66667 32.0889 4.08889C31.4222 3.55556 30.7111 3.11111 29.9556 2.66667C28.6222 1.91111 27.2 1.24444 25.6889 0.8C25.2 0.666667 24.6667 0.533333 24.1778 0.4C23.4667 0.266667 22.7556 0.133333 22 0.0444444C21.3778 0.0444444 20.7111 0 20 0C19.2889 0 18.6222 0.0444444 17.9556 0.0888888C8.53333 1.06667 1.06667 8.53333 0.0888888 17.9556C0.0444444 18.6222 0 19.2889 0 20C0 31.0667 8.93333 40 20 40C31.0667 40 40 31.0667 40 20C40 19.2889 39.9556 18.6222 39.9111 17.9556ZM30.3556 11.5556C30.8444 11.2444 31.4667 11.3333 31.7778 11.8222C32.4889 12.8444 33.0667 13.9111 33.4667 15.0667C33.6444 15.6 33.3778 16.2222 32.8444 16.4C32.7111 16.4444 32.6222 16.4444 32.4889 16.4444C32.0444 16.4444 31.6889 16.1778 31.5111 15.7778C31.1556 14.8 30.6667 13.8667 30.0889 12.9778C29.7778 12.5333 29.9111 11.8667 30.3556 11.5556ZM20 5.64444C23.5111 5.64444 26.8889 6.93333 29.5111 9.24444C29.9556 9.64444 30 10.2667 29.6 10.7111C29.3778 10.9333 29.1111 11.0667 28.8 11.0667C28.5778 11.0667 28.3111 10.9778 28.1333 10.8C25.8667 8.8 22.9778 7.73333 20 7.73333C19.4222 7.73333 18.9778 7.28889 18.9778 6.71111C18.9778 6.13333 19.4222 5.64444 20 5.64444ZM20 16.6222C21.8667 16.6222 23.3778 18.1333 23.3778 20C23.3778 21.8667 21.8667 23.3778 20 23.3778C18.1333 23.3778 16.6222 21.8667 16.6222 20C16.6222 18.1333 18.1333 16.6222 20 16.6222ZM20 36.8889C10.6667 36.8889 3.11111 29.3333 3.11111 20H12.7111C12.7111 24 15.9556 27.2889 20 27.2889C24.0444 27.2889 27.2889 24 27.2889 20H36.8889C36.8889 29.3333 29.3333 36.8889 20 36.8889Z" fill="white" fill-opacity="0.89"/>
</svg>
