<svg width="22" height="22" viewBox="0 0 22 22" fill="none" xmlns="http://www.w3.org/2000/svg">
<path fill-rule="evenodd" clip-rule="evenodd" d="M11 0C17.0868 0 22 4.94045 22 11C22 17.0868 17.0868 22 11 22C4.94045 22 0 17.0868 0 11C0 4.94045 4.94045 0 11 0ZM11 13.2382L7.34243 16.8958C5.86849 18.3697 3.65757 16.1315 5.10422 14.6849L8.78908 11L5.10422 7.34243C3.65757 5.86849 5.86849 3.65757 7.34243 5.10422L11 8.78908L14.6849 5.10422C16.1315 3.65757 18.3697 5.86849 16.8958 7.34243L13.2382 11L16.8958 14.6849C18.3697 16.1315 16.1315 18.3697 14.6849 16.8958L11 13.2382Z" fill="white"/>
</svg>
